<?xml version="1.0" standalone="no"?>
<!DOCTYPE svg PUBLIC "-//W3C//DTD SVG 20010904//EN"
 "http://www.w3.org/TR/2001/REC-SVG-20010904/DTD/svg10.dtd">
<svg version="1.0" xmlns="http://www.w3.org/2000/svg"
 width="400.000000pt" height="400.000000pt" viewBox="0 0 400.000000 400.000000"
 preserveAspectRatio="xMidYMid meet">

<g transform="translate(0.000000,400.000000) scale(0.100000,-0.100000)"
fill="#000000" stroke="none">
<path d="M1233 2987 c-139 -243 -253 -446 -253 -450 0 -4 50 -95 111 -202
l112 -195 540 2 540 3 68 118 68 117 -68 118 -67 117 -225 3 -225 2 -18 37
c-14 30 -15 41 -5 65 l11 28 268 0 268 0 106 -185 106 -185 -104 -183 -105
-182 -540 -3 c-298 -1 -541 -4 -541 -5 0 -2 46 -84 103 -183 l103 -179 516 -3
515 -2 253 442 c139 244 253 448 253 454 0 6 -49 97 -109 202 l-109 192 -542
0 -541 0 -68 -117 -67 -117 22 -41 c11 -22 43 -76 69 -120 l48 -80 222 -5 222
-5 20 -33 c20 -32 20 -34 3 -63 l-18 -29 -264 2 -265 3 -103 180 c-57 99 -103
185 -103 190 0 6 47 91 104 190 l103 180 537 3 c295 1 536 4 536 6 0 2 -45 82
-99 177 l-99 174 -518 2 -519 3 -252 -443z"/>
<path d="M470 1286 c-71 -16 -95 -29 -152 -84 l-48 -46 0 -77 0 -76 43 -40
c48 -44 112 -72 229 -97 42 -9 88 -26 102 -37 34 -27 34 -68 0 -100 -21 -20
-36 -24 -89 -24 -80 0 -103 18 -107 84 l-3 46 -85 0 -85 0 -3 -63 c-3 -54 0
-66 23 -96 106 -139 364 -155 489 -30 l46 46 0 93 0 94 -36 35 c-39 38 -104
66 -208 90 -36 9 -82 22 -101 30 -31 13 -35 19 -35 50 0 48 35 71 106 71 72 0
108 -27 112 -83 l3 -42 80 0 79 0 0 68 c0 67 -1 69 -42 109 -54 51 -87 68
-163 82 -70 13 -84 13 -155 -3z"/>
<path d="M942 928 l3 -353 243 -3 242 -2 0 70 0 69 -157 3 -158 3 0 75 0 75
143 3 142 3 0 67 0 67 -142 0 -143 0 0 70 0 70 153 3 152 3 0 64 0 65 -240 0
-240 0 2 -352z"/>
<path d="M1572 928 l3 -353 80 0 80 0 5 207 5 207 94 -172 c52 -95 105 -189
118 -210 l24 -38 87 3 87 3 3 353 2 352 -85 0 -85 0 -2 -204 -3 -205 -112 202
-111 202 -96 3 -96 3 2 -353z"/>
<path d="M2470 1277 c0 -2 -45 -136 -100 -299 -80 -235 -100 -307 -100 -352
l0 -56 64 0 c41 0 68 5 73 13 4 6 19 48 33 92 l26 80 106 3 105 3 29 -93 30
-93 74 0 75 0 4 40 c3 31 -21 113 -100 352 l-104 312 -107 1 c-60 0 -108 -1
-108 -3z m155 -356 l7 -31 -62 0 c-46 0 -61 3 -58 13 3 6 18 50 33 97 l28 85
23 -66 c12 -37 25 -81 29 -98z"/>
<path d="M2890 1215 l0 -64 93 -3 92 -3 3 -288 2 -288 83 3 82 3 3 288 2 287
95 0 95 0 0 65 0 65 -275 0 -275 0 0 -65z"/>
<path d="M3560 925 l0 -355 90 0 90 0 0 349 c0 309 -2 350 -16 355 -9 3 -49 6
-90 6 l-74 0 0 -355z"/>
</g>
</svg>
